<svg width="175" height="27" viewBox="0 0 175 27" fill="none" xmlns="http://www.w3.org/2000/svg">
<path d="M6.82 23.232C7.432 23.1187 8.70133 22.858 10.628 22.45L13.246 21.906C13.5407 22.2007 13.79 22.4613 13.994 22.688C14.198 22.9147 14.3 23.1073 14.3 23.266C14.3 23.4473 14.2093 23.6287 14.028 23.81C13.8467 23.9913 13.484 24.286 12.94 24.694C12.872 24.7393 12.7927 24.8187 12.702 24.932C12.634 25.0453 12.5547 25.1133 12.464 25.136L11.546 25.374C10.7753 25.6007 10.084 25.7707 9.472 25.884C8.88267 26.02 8.282 26.088 7.67 26.088C5.494 26.088 3.71467 25.442 2.332 24.15C1.81067 23.674 1.40267 23.198 1.108 22.722C0.836 22.2233 0.7 21.6907 0.7 21.124C0.7 20.8747 0.711333 20.6933 0.734 20.58C1.09667 18.336 1.50467 16.432 1.958 14.868C2.434 13.1453 3.29533 10.2213 4.542 6.096C4.814 5.12133 5.24467 3.65933 5.834 1.71C5.99267 1.18867 6.208 0.826 6.48 0.622C6.77467 0.418 7.194 0.338666 7.738 0.383999C7.85133 0.383999 7.95333 0.395332 8.044 0.417998C8.15733 0.440665 8.27067 0.451998 8.384 0.451998C9.78933 0.565332 10.492 1.24533 10.492 2.492C10.492 2.80933 10.4467 3.138 10.356 3.478C10.1747 4.20333 9.83467 5.178 9.336 6.402C7.5 11.0713 6.08333 15.5707 5.086 19.9C4.95 20.444 4.882 21.0107 4.882 21.6C4.882 22.7107 5.36933 23.266 6.344 23.266C6.548 23.266 6.70667 23.2547 6.82 23.232ZM20.564 9.156C20.5186 9.292 20.3486 9.43933 20.054 9.598C19.782 9.75667 19.5553 9.904 19.374 10.04L18.422 9.53C17.4926 9.03133 16.858 8.63467 16.518 8.34C16.3366 8.204 16.246 8.034 16.246 7.83C16.246 7.694 16.2913 7.58067 16.382 7.49C16.4953 7.37667 16.654 7.32 16.858 7.32C17.742 7.32 18.8186 7.54667 20.088 8C20.224 8.02267 20.3486 8.18133 20.462 8.476C20.5753 8.748 20.6093 8.97467 20.564 9.156ZM17.504 15.48C17.572 15.1853 17.6173 14.97 17.64 14.834C17.6626 14.698 17.674 14.5507 17.674 14.392C17.674 14.0747 17.7646 13.8253 17.946 13.644C18.15 13.4627 18.524 13.372 19.068 13.372C19.7026 13.372 20.258 13.576 20.734 13.984C21.2326 14.3693 21.5386 14.8793 21.652 15.514C21.72 15.8313 21.7653 16.1827 21.788 16.568C21.8106 16.9533 21.822 17.2027 21.822 17.316L22.298 23.13C22.366 23.742 22.2753 24.218 22.026 24.558C21.7993 24.8753 21.3573 25.034 20.7 25.034C20.1333 25.034 19.646 24.8753 19.238 24.558C18.8526 24.2407 18.6146 23.8327 18.524 23.334L17.64 16.126L17.504 15.48ZM32.9219 7.966C33.0352 7.92067 33.2846 7.88667 33.6699 7.864C34.0779 7.81867 34.4406 7.796 34.7579 7.796C35.3926 7.796 35.9706 8.19267 36.4919 8.986L36.0499 9.326C35.5286 9.71133 34.7806 10.006 33.8059 10.21C32.9446 10.6407 32.2986 11.0033 31.8679 11.298C31.4599 11.5927 31.1539 11.9213 30.9499 12.284C30.7686 12.6467 30.6779 13.1113 30.6779 13.678C30.6779 13.95 30.7459 14.6527 30.8819 15.786L31.0519 17.214C31.2332 18.9593 31.3919 20.24 31.5279 21.056C31.5732 21.3507 31.6639 21.702 31.7999 22.11C31.9586 22.4953 32.1172 22.722 32.2759 22.79C32.4346 22.858 32.7519 22.7447 33.2279 22.45C34.1346 21.362 34.7239 20.6027 34.9959 20.172C35.0639 20.0587 35.1772 19.866 35.3359 19.594C35.4946 19.322 35.6532 19.118 35.8119 18.982C35.9706 18.8233 36.1632 18.744 36.3899 18.744C36.4352 18.744 36.5486 18.7667 36.7299 18.812C37.0926 18.9253 37.3759 19.0953 37.5799 19.322C37.8066 19.5487 37.9199 19.8773 37.9199 20.308C37.9199 20.512 37.9086 20.6593 37.8859 20.75C37.7499 21.6567 37.4326 22.4727 36.9339 23.198C36.4352 23.9233 35.7779 24.6373 34.9619 25.34C34.6446 25.6347 34.1232 25.782 33.3979 25.782C32.6046 25.782 31.8226 25.6007 31.0519 25.238C30.2812 24.898 29.7599 24.4447 29.4879 23.878C28.7852 22.3593 28.1279 20.4213 27.5159 18.064C27.3572 17.4067 27.2326 16.364 27.1419 14.936L27.0399 13.678C26.9946 13.1567 26.9946 12.76 27.0399 12.488C27.0852 12.1933 26.6432 12.012 25.7139 11.944C25.3739 11.9213 25.2039 11.6947 25.2039 11.264C25.4306 10.5387 25.7819 10.108 26.2579 9.972C26.7112 9.836 26.9946 9.55267 27.1079 9.122C27.2212 8.66867 27.3119 8.204 27.3799 7.728C27.5839 6.25467 27.6292 4.61133 27.5159 2.798C27.4706 1.93667 27.7312 1.438 28.2979 1.302L28.6039 1.336C28.7172 1.35867 28.9779 1.404 29.3859 1.472C29.7939 1.51733 30.1566 1.61933 30.4739 1.778C31.2672 2.20867 31.6639 2.968 31.6639 4.056C31.6639 4.50933 31.5732 5.09867 31.3919 5.824C31.3692 5.93733 31.3352 6.03933 31.2899 6.13C31.2446 6.22067 31.2106 6.32267 31.1879 6.436C31.1199 6.776 31.0859 7.05933 31.0859 7.286C30.8819 7.966 31.0406 8.306 31.5619 8.306C31.7432 8.306 32.1966 8.19267 32.9219 7.966ZM40.7634 12.318C40.6048 12.1367 40.4914 11.944 40.4234 11.74C40.3781 11.536 40.3328 11.2527 40.2874 10.89C40.4914 10.414 40.8654 10.176 41.4094 10.176C41.6814 10.2213 41.8741 10.244 41.9874 10.244C42.4408 10.244 42.7241 10.108 42.8374 9.836C42.9508 9.564 43.0074 9.24667 43.0074 8.884C43.0074 8.52133 43.0074 8.238 43.0074 8.034L43.1094 5.994C43.1321 5.54067 43.1548 4.98533 43.1774 4.328C43.2228 3.648 43.2681 2.866 43.3134 1.982C43.3361 1.506 43.4494 1.15467 43.6534 0.928C43.8801 0.701332 44.1861 0.587998 44.5714 0.587998C44.8434 0.587998 45.0588 0.610665 45.2174 0.655999C46.1468 0.859999 46.7701 1.15467 47.0874 1.54C47.4048 1.92533 47.6201 2.50333 47.7334 3.274C47.7561 3.43267 47.7334 3.76133 47.6654 4.26L47.0534 9.564C47.0308 9.7 46.9968 9.87 46.9514 10.074C46.9061 10.2553 46.8834 10.3913 46.8834 10.482C46.8834 10.686 46.9968 10.822 47.2234 10.89C47.4501 10.958 47.8694 10.9807 48.4814 10.958C49.5241 10.7313 50.3174 10.584 50.8614 10.516C50.9748 10.4933 51.1561 10.482 51.4054 10.482C51.6774 10.482 51.8588 10.516 51.9494 10.584C52.0401 10.6293 52.1081 10.7653 52.1534 10.992C52.2214 11.196 52.2554 11.434 52.2554 11.706C52.2554 11.9553 52.2214 12.182 52.1534 12.386C52.1081 12.59 52.0401 12.7033 51.9494 12.726C51.3374 12.9073 50.6121 13.0547 49.7734 13.168C48.7761 13.3493 48.0394 13.508 47.5634 13.644C47.3141 13.712 47.0648 13.882 46.8154 14.154C46.5661 14.426 46.4301 14.6753 46.4074 14.902C46.3621 16.0127 46.3281 17.146 46.3054 18.302C46.2828 19.186 46.3168 20.07 46.4074 20.954C46.4754 21.702 46.6228 22.246 46.8494 22.586C47.0761 22.9033 47.4161 23.062 47.8694 23.062C48.2321 23.062 48.7534 22.9373 49.4334 22.688C49.7961 22.5293 50.1134 22.45 50.3854 22.45C50.8161 22.45 51.1221 22.688 51.3034 23.164C51.3714 23.3227 51.4054 23.4813 51.4054 23.64C51.4054 23.9347 51.2921 24.1727 51.0654 24.354C50.8614 24.5353 50.5781 24.694 50.2154 24.83C49.5354 25.0793 48.8441 25.2153 48.1414 25.238C47.1894 25.238 46.2941 25.0113 45.4554 24.558C44.6168 24.082 43.9481 23.4247 43.4494 22.586C42.9734 21.7473 42.7694 20.784 42.8374 19.696C42.8601 19.2653 42.8714 18.5853 42.8714 17.656C42.8714 16.1827 42.8148 14.6867 42.7014 13.168C42.6788 13.032 42.5994 12.9413 42.4634 12.896C42.3274 12.828 42.1008 12.76 41.7834 12.692C41.2621 12.6013 40.9221 12.4767 40.7634 12.318ZM55.3967 23.844C55.4647 23.8213 55.5894 23.81 55.7707 23.81C55.7707 15.446 55.7594 9.16733 55.7367 4.974C55.7367 4.67933 55.6574 4.33933 55.4987 3.954C55.34 3.546 55.2267 3.24 55.1587 3.036C55 2.60533 54.9207 2.24267 54.9207 1.948C54.9207 1.35867 55.2154 0.893998 55.8047 0.553999C56.1674 0.327332 56.632 0.213999 57.1987 0.213999C57.5614 0.213999 57.9014 0.270666 58.2187 0.383999C58.536 0.497332 58.7627 0.678666 58.8987 0.928C59.4654 1.92533 59.7374 2.832 59.7147 3.648C59.6694 4.78133 59.6014 6.062 59.5107 7.49C59.42 8.89533 59.3634 9.87 59.3407 10.414C59.2047 11.91 59.1027 13.4173 59.0347 14.936L58.8647 19.526C58.842 20.546 58.7854 22.076 58.6947 24.116C58.6494 24.7053 58.502 25.1247 58.2527 25.374C58.026 25.6233 57.652 25.748 57.1307 25.748C56.904 25.748 56.7227 25.7367 56.5867 25.714C56.0427 25.6687 55.7027 25.4873 55.5667 25.17C55.4307 24.8527 55.374 24.4107 55.3967 23.844ZM67.3379 11.74C67.5419 11.7173 67.7119 11.7173 67.8479 11.74C67.9839 11.74 68.1085 11.74 68.2219 11.74C68.3805 11.7173 68.6185 11.706 68.9359 11.706C70.4772 11.706 71.9959 12.148 73.4919 13.032C74.1492 13.44 74.4779 13.8707 74.4779 14.324C74.4779 14.8227 74.1379 15.2647 73.4579 15.65C72.8912 15.99 72.3019 16.3867 71.6899 16.84C70.6019 17.5653 69.6725 18.132 68.9019 18.54C68.1539 18.948 67.3265 19.2313 66.4199 19.39C66.2839 19.4353 66.1365 19.56 65.9779 19.764C65.8419 19.9453 65.7852 20.0813 65.8079 20.172C65.8532 20.308 65.9325 20.5913 66.0459 21.022C66.1592 21.43 66.2839 21.7813 66.4199 22.076C66.5785 22.348 66.7599 22.5747 66.9639 22.756C67.1905 22.9373 67.5305 23.028 67.9839 23.028C68.4372 23.028 68.8565 22.96 69.2419 22.824C70.6019 22.1893 71.8939 21.396 73.1179 20.444C73.4805 20.1947 73.7979 20.07 74.0699 20.07C74.4099 20.07 74.7725 20.2513 75.1579 20.614C75.4299 20.8633 75.5659 21.124 75.5659 21.396C75.5659 21.6907 75.3505 22.0533 74.9199 22.484C72.9932 24.3653 70.9419 25.306 68.7659 25.306C68.1765 25.306 67.4512 25.1927 66.5899 24.966C65.1392 24.6033 64.0285 23.7987 63.2579 22.552C62.4872 21.3053 62.1019 19.8773 62.1019 18.268C62.1019 17.7693 62.1359 17.2933 62.2039 16.84C62.2265 16.6813 62.2719 16.3527 62.3399 15.854C62.4305 15.3327 62.5665 14.902 62.7479 14.562C63.6092 12.862 65.1392 11.9213 67.3379 11.74ZM69.3099 14.188C68.9019 14.052 68.5392 13.984 68.2219 13.984C67.7005 13.984 67.2925 14.1427 66.9979 14.46C66.7032 14.7773 66.4652 15.2533 66.2839 15.888C66.8279 15.956 67.4059 15.82 68.0179 15.48C68.6525 15.1173 69.0832 14.6867 69.3099 14.188ZM92.5505 23.232C93.1625 23.1187 94.4318 22.858 96.3585 22.45L98.9765 21.906C99.2711 22.2007 99.5205 22.4613 99.7245 22.688C99.9285 22.9147 100.03 23.1073 100.03 23.266C100.03 23.4473 99.9398 23.6287 99.7585 23.81C99.5771 23.9913 99.2145 24.286 98.6705 24.694C98.6025 24.7393 98.5231 24.8187 98.4325 24.932C98.3645 25.0453 98.2851 25.1133 98.1945 25.136L97.2765 25.374C96.5058 25.6007 95.8145 25.7707 95.2025 25.884C94.6131 26.02 94.0125 26.088 93.4005 26.088C91.2245 26.088 89.4451 25.442 88.0625 24.15C87.5411 23.674 87.1331 23.198 86.8385 22.722C86.5665 22.2233 86.4305 21.6907 86.4305 21.124C86.4305 20.8747 86.4418 20.6933 86.4645 20.58C86.8271 18.336 87.2351 16.432 87.6885 14.868C88.1645 13.1453 89.0258 10.2213 90.2725 6.096C90.5445 5.12133 90.9751 3.65933 91.5645 1.71C91.7231 1.18867 91.9385 0.826 92.2105 0.622C92.5051 0.418 92.9245 0.338666 93.4685 0.383999C93.5818 0.383999 93.6838 0.395332 93.7745 0.417998C93.8878 0.440665 94.0011 0.451998 94.1145 0.451998C95.5198 0.565332 96.2225 1.24533 96.2225 2.492C96.2225 2.80933 96.1771 3.138 96.0865 3.478C95.9051 4.20333 95.5651 5.178 95.0665 6.402C93.2305 11.0713 91.8138 15.5707 90.8165 19.9C90.6805 20.444 90.6125 21.0107 90.6125 21.6C90.6125 22.7107 91.0998 23.266 92.0745 23.266C92.2785 23.266 92.4371 23.2547 92.5505 23.232ZM109.286 19.696C109.06 19.832 108.731 19.9 108.3 19.9C108.142 19.9 107.949 19.8887 107.722 19.866C107.496 19.8433 107.303 19.8433 107.144 19.866C107.326 20.614 107.756 21.226 108.436 21.702C109.116 22.1553 109.876 22.382 110.714 22.382C111.44 22.382 112.086 22.2233 112.652 21.906C113.491 21.4753 114.216 20.9653 114.828 20.376C115.259 19.9453 115.667 19.73 116.052 19.73C116.302 19.73 116.517 19.8547 116.698 20.104C116.88 20.3987 116.97 20.7613 116.97 21.192C116.97 21.6453 116.88 21.9967 116.698 22.246C116.109 23.1527 115.338 23.776 114.386 24.116C113.457 24.456 112.369 24.626 111.122 24.626C109.83 24.626 108.584 24.3427 107.382 23.776C106.181 23.2093 105.15 22.4387 104.288 21.464C103.45 20.4667 102.894 19.3673 102.622 18.166C102.441 17.4633 102.35 16.772 102.35 16.092C102.35 15.0267 102.645 14.1653 103.234 13.508C103.846 12.8507 104.821 12.2273 106.158 11.638C107.382 11.1167 108.516 10.856 109.558 10.856C110.306 10.856 111.032 10.9693 111.734 11.196C113.91 11.876 114.998 12.8053 114.998 13.984C114.998 14.732 114.556 15.6387 113.672 16.704C113.242 17.2027 112.732 17.6447 112.142 18.03C111.553 18.4153 110.975 18.7667 110.408 19.084C109.864 19.3787 109.49 19.5827 109.286 19.696ZM110.714 13.406C110.692 13.2927 110.601 13.202 110.442 13.134C110.306 13.0433 110.227 12.9867 110.204 12.964C109.592 12.9187 108.969 13.1 108.334 13.508C107.7 13.8933 107.167 14.392 106.736 15.004C106.328 15.616 106.124 16.2053 106.124 16.772L106.158 17.044C106.181 17.1347 106.294 17.248 106.498 17.384C106.725 17.52 106.861 17.5653 106.906 17.52C108.516 16.3187 109.728 15.3553 110.544 14.63C110.68 14.494 110.748 14.2447 110.748 13.882C110.748 13.6553 110.737 13.4967 110.714 13.406ZM132.705 14.494C133.634 13.134 134.688 12.6807 135.867 13.134C137.068 13.5873 137.793 14.154 138.043 14.834L139.063 17.554C139.335 18.2567 139.561 19.3333 139.743 20.784C139.947 22.2347 140.128 23.6173 140.287 24.932C140.309 25 140.321 25.1247 140.321 25.306C140.321 26.0087 139.935 26.462 139.165 26.666C138.666 26.802 138.258 26.6773 137.941 26.292C137.465 25.7253 137.079 24.8527 136.785 23.674C136.626 23.0393 136.399 21.6793 136.105 19.594C136.105 17.962 135.538 17.3613 134.405 17.792C133.815 18.948 133.43 19.8887 133.249 20.614C133.09 21.3393 132.92 21.9627 132.739 22.484C132.172 23.7987 131.685 24.5127 131.277 24.626C130.891 24.7167 130.506 24.6713 130.121 24.49C129.758 24.3087 129.577 23.946 129.577 23.402C129.577 22.2687 129.509 20.886 129.373 19.254C129.259 17.5993 128.874 16.8173 128.217 16.908C127.582 16.976 127.14 17.214 126.891 17.622C126.641 18.0073 126.324 18.744 125.939 19.832C125.576 20.92 125.304 22.11 125.123 23.402C125.077 23.742 124.941 24.116 124.715 24.524C124.511 24.9093 124.318 25.1473 124.137 25.238C123.955 25.3513 123.615 25.2947 123.117 25.068C122.641 24.864 122.357 24.558 122.267 24.15C122.176 23.7193 122.097 23.2773 122.029 22.824C121.847 21.5547 121.757 20.4667 121.757 19.56C121.779 18.6533 121.711 17.8033 121.553 17.01C121.507 16.8287 121.405 16.5567 121.247 16.194C121.088 15.8313 120.261 15.2193 118.765 14.358C118.357 13.9727 118.164 13.5987 118.187 13.236C118.209 12.8507 118.368 12.5673 118.663 12.386C119.116 12.114 119.603 11.978 120.125 11.978C120.782 11.978 121.405 12.1707 121.995 12.556C122.584 12.9413 123.026 13.372 123.321 13.848C123.593 14.2787 123.774 14.6187 123.865 14.868C123.955 15.1173 124.08 15.242 124.239 15.242C124.375 15.242 124.522 15.14 124.681 14.936C124.862 14.7093 125.111 14.426 125.429 14.086C126.086 13.3833 126.709 12.9187 127.299 12.692C127.911 12.4427 128.409 12.318 128.795 12.318C129.203 12.318 129.633 12.454 130.087 12.726C130.54 12.9753 130.846 13.4173 131.005 14.052L131.651 16.568L132.705 14.494ZM155.98 13.474C156.184 13.882 156.365 14.3467 156.524 14.868C156.705 15.3667 156.83 15.6953 156.898 15.854L157.204 16.738C156.932 18.03 156.66 19.0953 156.388 19.934C156.116 20.75 155.719 21.5207 155.198 22.246C154.677 22.9487 153.963 23.5267 153.056 23.98C152.217 24.4107 151.322 24.626 150.37 24.626C149.327 24.626 148.319 24.388 147.344 23.912C146.392 23.436 145.587 22.7787 144.93 21.94C144.273 21.0787 143.887 20.1153 143.774 19.05C143.729 18.506 143.706 18.0867 143.706 17.792C143.706 16.9987 143.819 16.2733 144.046 15.616C144.295 14.9587 144.726 14.358 145.338 13.814C145.519 13.6553 145.723 13.3493 145.95 12.896C146.154 12.488 146.347 12.182 146.528 11.978C147.48 10.958 148.613 10.448 149.928 10.448C150.585 10.448 151.356 10.5953 152.24 10.89C152.353 10.9353 152.727 11.0713 153.362 11.298C154.019 11.5247 154.563 11.8193 154.994 12.182C155.425 12.5447 155.753 12.9753 155.98 13.474ZM150.064 12.352C149.225 13.032 148.625 13.848 148.262 14.8C147.922 15.7293 147.616 16.9873 147.344 18.574C147.389 18.7553 147.491 19.1407 147.65 19.73C147.809 20.3193 148.001 20.8633 148.228 21.362C148.477 21.974 148.919 22.28 149.554 22.28C149.667 22.28 149.883 22.2573 150.2 22.212C150.903 22.076 151.515 21.6793 152.036 21.022C152.58 20.342 152.999 19.5487 153.294 18.642C153.589 17.7353 153.736 16.8967 153.736 16.126C153.736 14.6073 153.113 13.3267 151.866 12.284C151.549 12.0347 151.265 11.91 151.016 11.91C150.744 11.91 150.427 12.0573 150.064 12.352ZM166.046 12.182C166.046 12.318 166.024 12.4993 165.978 12.726C165.933 12.93 165.922 13.066 165.944 13.134C167.508 12.794 168.834 12.624 169.922 12.624C171.622 12.624 172.903 13.44 173.764 15.072C174.467 16.4547 174.818 17.9847 174.818 19.662C174.818 20.0927 174.773 20.716 174.682 21.532C174.614 22.076 174.399 22.518 174.036 22.858C173.674 23.1753 173.243 23.334 172.744 23.334C172.223 23.334 171.849 23.2433 171.622 23.062C171.418 22.858 171.294 22.6313 171.248 22.382C171.226 22.1327 171.214 21.736 171.214 21.192L171.18 20.478C171.135 19.118 171.044 17.9393 170.908 16.942C170.84 16.534 170.682 16.2507 170.432 16.092C170.206 15.9107 169.9 15.82 169.514 15.82C169.152 15.82 168.721 15.8767 168.222 15.99C167.452 16.194 166.93 16.3527 166.658 16.466C166.409 16.5793 166.035 16.8173 165.536 17.18C165.378 17.2933 165.264 17.52 165.196 17.86C165.128 18.2 165.094 18.3927 165.094 18.438C164.8 19.8887 164.482 21.6227 164.142 23.64C164.12 23.7307 164.074 23.946 164.006 24.286C163.938 24.626 163.802 24.864 163.598 25C163.417 25.1587 163.145 25.2153 162.782 25.17C161.354 24.9887 160.629 24.388 160.606 23.368C160.584 22.0533 160.686 20.5007 160.912 18.71C161.071 17.418 161.218 16.3753 161.354 15.582C161.4 15.2193 161.456 14.7773 161.524 14.256C161.615 13.7347 161.694 13.134 161.762 12.454C161.83 11.9327 161.898 11.5473 161.966 11.298C162.034 11.0487 162.193 10.8447 162.442 10.686C162.692 10.5047 163.077 10.414 163.598 10.414C164.256 10.414 164.8 10.5613 165.23 10.856C165.661 11.1507 165.933 11.57 166.046 12.114V12.182Z" fill="#F4CE14"/>
</svg>
